<svg xmlns="http://www.w3.org/2000/svg" viewBox="0 0 200 200" fill="none" stroke="#000" stroke-width="2" stroke-linecap="round" stroke-linejoin="round">
  <!-- Ground -->
  <line x1="15" y1="175" x2="185" y2="175"/>
  <!-- Main wall -->
  <rect x="50" y="80" width="100" height="95"/>
  <!-- Battlements on main wall -->
  <rect x="50" y="72" width="12" height="15"/>
  <rect x="72" y="72" width="12" height="15"/>
  <rect x="94" y="72" width="12" height="15"/>
  <rect x="116" y="72" width="12" height="15"/>
  <rect x="138" y="72" width="12" height="15"/>
  <!-- Left tower -->
  <rect x="35" y="55" width="25" height="120"/>
  <!-- Left tower battlements -->
  <rect x="35" y="47" width="8" height="12"/>
  <rect x="47" y="47" width="8" height="12"/>
  <!-- Right tower -->
  <rect x="140" y="55" width="25" height="120"/>
  <!-- Right tower battlements -->
  <rect x="140" y="47" width="8" height="12"/>
  <rect x="152" y="47" width="8" height="12"/>
  <!-- Left tower top -->
  <polygon points="35,47 47,30 60,47"/>
  <!-- Right tower top -->
  <polygon points="140,47 152,30 165,47"/>
  <!-- Left tower window -->
  <path d="M43,68 Q47,62 52,68 L52,85 L43,85 Z"/>
  <!-- Right tower window -->
  <path d="M148,68 Q152,62 157,68 L157,85 L148,85 Z"/>
  <!-- Main gate (arch) -->
  <path d="M85,175 L85,130 Q100,110 115,130 L115,175"/>
  <!-- Gate lines -->
  <line x1="100" y1="120" x2="100" y2="175"/>
  <!-- Main wall windows -->
  <path d="M70,105 Q75,98 80,105 L80,120 L70,120 Z"/>
  <path d="M120,105 Q125,98 130,105 L130,120 L120,120 Z"/>
  <!-- Flag on left tower -->
  <line x1="47" y1="30" x2="47" y2="14"/>
  <path d="M47,14 L62,18 L47,22"/>
  <!-- Flag on right tower -->
  <line x1="152" y1="30" x2="152" y2="14"/>
  <path d="M152,14 L167,18 L152,22"/>
</svg>