<svg xmlns="http://www.w3.org/2000/svg" viewBox="0 0 200 200" fill="none" stroke="#000" stroke-width="2" stroke-linecap="round" stroke-linejoin="round">
  <!-- Ears -->
  <polyline points="65,85 58,40 95,72"/>
  <polyline points="135,85 142,40 105,72"/>
  <!-- Head -->
  <ellipse cx="100" cy="95" rx="42" ry="38"/>
  <!-- Eyes -->
  <circle cx="82" cy="88" r="5"/>
  <circle cx="118" cy="88" r="5"/>
  <circle cx="83" cy="87" r="2"/>
  <circle cx="119" cy="87" r="2"/>
  <!-- Nose -->
  <path d="M97,100 L100,104 L103,100"/>
  <!-- Mouth -->
  <path d="M100,104 Q94,112 88,108"/>
  <path d="M100,104 Q106,112 112,108"/>
  <!-- Whiskers -->
  <line x1="68" y1="96" x2="40" y2="90"/>
  <line x1="68" y1="100" x2="38" y2="100"/>
  <line x1="68" y1="104" x2="40" y2="110"/>
  <line x1="132" y1="96" x2="160" y2="90"/>
  <line x1="132" y1="100" x2="162" y2="100"/>
  <line x1="132" y1="104" x2="160" y2="110"/>
  <!-- Body -->
  <ellipse cx="100" cy="158" rx="35" ry="30"/>
  <!-- Tail -->
  <path d="M135,155 Q165,130 158,105 Q155,92 145,95"/>
  <!-- Front paws -->
  <path d="M78,183 Q78,193 85,193"/>
  <path d="M122,183 Q122,193 115,193"/>
</svg>